<?xml version="1.0" standalone="no"?>
<!DOCTYPE svg PUBLIC "-//W3C//DTD SVG 20010904//EN"
 "http://www.w3.org/TR/2001/REC-SVG-20010904/DTD/svg10.dtd">
<svg version="1.0" xmlns="http://www.w3.org/2000/svg"
 width="750.000000pt" height="750.000000pt" viewBox="0 0 750.000000 750.000000"
 preserveAspectRatio="xMidYMid meet">
<metadata>
Created by potrace 1.11, written by Peter Selinger 2001-2013
</metadata>
<g transform="translate(0.000000,750.000000) scale(0.100000,-0.100000)"
fill="#000000" stroke="none">
<path d="M3519 7496 c-2 -2 -42 -6 -89 -10 -47 -4 -96 -8 -110 -11 -14 -2 -46
-7 -73 -9 -26 -3 -73 -10 -105 -15 -31 -6 -72 -13 -91 -16 -19 -3 -37 -8 -40
-10 -4 -2 -24 -6 -46 -9 -22 -4 -92 -20 -155 -37 -63 -16 -119 -31 -125 -32
-15 -4 -178 -58 -195 -64 -8 -4 -17 -7 -20 -8 -11 -4 -46 -17 -65 -25 -363
-147 -670 -318 -920 -512 -27 -21 -63 -49 -79 -61 -16 -12 -37 -30 -47 -39
-11 -10 -21 -18 -23 -18 -13 0 -307 -285 -382 -371 -63 -72 -141 -165 -169
-204 -17 -22 -34 -44 -38 -50 -32 -41 -93 -128 -120 -170 -17 -27 -34 -52 -38
-55 -3 -3 -16 -23 -28 -45 -12 -22 -30 -53 -41 -70 -102 -162 -258 -507 -334
-740 -35 -110 -101 -355 -111 -417 -3 -18 -10 -55 -15 -83 -21 -109 -35 -211
-47 -350 -10 -113 -10 -512 0 -627 32 -372 116 -728 254 -1073 31 -77 59 -146
63 -155 4 -8 30 -60 57 -115 53 -108 105 -207 113 -215 3 -3 16 -25 29 -49 54
-98 241 -366 315 -452 17 -19 54 -62 81 -94 65 -78 283 -296 360 -360 32 -28
66 -57 75 -65 9 -8 29 -24 44 -35 16 -11 38 -29 50 -40 11 -11 38 -31 58 -44
21 -12 38 -27 38 -32 0 -6 4 -8 9 -5 5 4 11 3 13 -1 1 -5 37 -31 78 -59 287
-196 649 -370 990 -476 104 -32 305 -83 360 -92 19 -3 46 -8 60 -11 14 -3 39
-7 55 -10 17 -3 41 -7 55 -10 14 -3 45 -7 70 -10 25 -3 65 -8 90 -11 131 -16
258 -21 475 -18 238 3 269 5 375 19 30 4 66 9 80 10 53 6 125 17 131 21 3 1
28 6 55 10 27 3 52 8 55 10 3 2 21 6 40 9 19 3 70 15 114 27 44 11 87 22 95
23 8 2 15 4 15 5 0 1 8 3 17 5 44 8 256 82 378 132 251 101 537 256 735 398
50 35 98 70 109 77 157 108 453 390 626 597 25 29 51 59 58 67 6 7 12 17 12
22 0 6 4 12 8 14 5 1 30 32 56 68 26 36 54 74 62 85 29 39 124 187 124 192 0
3 8 17 19 31 87 125 247 471 331 717 59 170 126 435 145 565 3 25 8 52 10 60
2 8 7 40 11 70 3 30 8 66 9 80 14 110 20 238 20 435 0 257 -6 339 -41 580 -59
415 -249 945 -471 1313 -12 21 -25 44 -29 52 -15 30 -148 225 -156 228 -4 2
-8 9 -8 15 0 7 -14 26 -30 44 -17 18 -30 35 -30 38 0 4 -6 12 -12 19 -7 7 -26
30 -43 52 -16 21 -39 48 -50 61 -11 12 -33 39 -50 59 -64 78 -320 330 -406
399 -14 11 -50 41 -81 68 -31 26 -59 47 -62 47 -5 0 -34 22 -60 46 -19 17
-272 184 -280 184 -4 0 -12 5 -19 10 -21 18 -127 79 -127 73 0 -3 -8 1 -17 9
-10 8 -71 40 -135 71 -380 184 -809 309 -1208 352 -30 3 -71 8 -90 11 -39 5
-566 15 -571 10z"/>
</g>
</svg>
